# xmcd
#
# Track frame offsets:
#	150
#	31140
#	49850
#	66465
#	87150
#	102810
#	112540
#	126175
#	145547
#	170887
#	182830
#	203355
#	222050
#
# Disc length: 3430 seconds
#
# Revision: 0
# Processed by: cddbd v1.4PL0 Copyright (c) Steve Scherf et al.
# Submitted via: dBpowerAMP V4.0
#
DISCID=ab0d640d
DTITLE=Darrell Mansfield Band - Crossroads
DYEAR=1997
DGENRE=Blues
TTITLE0=Million $ Feeling
TTITLE1=Stand By Me
TTITLE2=People Get Ready
TTITLE3=Jesus is Comin'
TTITLE4=Blues with a Feeling
TTITLE5=I'm Just Your Fool
TTITLE6=Nobody's Fault
TTITLE7=Crossroads
TTITLE8=Boom Boom
TTITLE9=Heavy Load
TTITLE10=The Mission
TTITLE11=Starry Sea
TTITLE12=He Has Overcome
EXTD=
EXTT0=
EXTT1=
EXTT2=
EXTT3=
EXTT4=
EXTT5=
EXTT6=
EXTT7=
EXTT8=
EXTT9=
EXTT10=
EXTT11=
EXTT12=
PLAYORDER=
